# xmcd
#
# Track frame offsets:
#	150
#	10581
#	23964
#	33261
#	44947
#	54600
#	67969
#	80934
#	94364
#	105699
#	117887
#	130535
#	142617
#	155612
#	168457
#	179650
#	189771
#	200608
#	211120
#	223821
#	234027
#	245130
#	256890
#	268773
#
# Disc length: 3761 seconds
#
# Revision: 1
# Processed by: cddbd v1.5.2PL0 Copyright (c) Steve Scherf et al.
# Submitted via: audiograbber 1.83.01
#
DISCID=570eaf18
DTITLE=Various Artist - Record 5 - Country Love -- Record 6 - Country Roads
DYEAR=1900
DGENRE=
TTITLE0=Connie Smith - Once A Day
TTITLE1=Marty Robbins - This Much A Man
TTITLE2=Lynn and Liz Anderson - Mother, May I
TTITLE3=Jack Greene - there Goes My Everything
TTITLE4=Loretta Lynn - Don't Come Home A-Drinkin' (With Lovin' On Your Mind)
TTITLE5=Conway Twitty - How Much More Can She Stand
TTITLE6=Charley Pride - She's Too Good To Be True
TTITLE7=Skeeter Davis and Bobby Bare - Your Husband, My Wife
TTITLE8=Wanda Jackson and Billy Gray - You Can't Have My Love
TTITLE9=Roy Drusky - Anymore
TTITLE10=Norma Jean - Let's Go All The Way
TTITLE11=Jerry Lee Lewis - One Has My Name, The Other Has My Heart
TTITLE12=Eddy Arnold - Take Me Home, Country Road
TTITLE13=Jim Reeves - Bimbo
TTITLE14=Floyd Cramer - Last Date
TTITLE15=Charley Pride - Is Anybody Going To San Antone
TTITLE16=Please Help Me I'm Falling - Please Help Me I'm Falling
TTITLE17=Jerry Reed - When You're Hot, You're Hot
TTITLE18=Bill Anderson - Still
TTITLE19=Dave Dudley - Six Days On The Road
TTITLE20=Del Wood - Down Yonder
TTITLE21=Jerry Lee Lewis - What Made Milwaukee Famous (Has Made A Loser Out Of 
TTITLE21=Me)
TTITLE22=Loretta Lynn and Conway Twitty - After The Fire Is Gone
TTITLE23=Red Foley - Peace In The Valley
EXTD=
EXTT0=
EXTT1=
EXTT2=
EXTT3=
EXTT4=
EXTT5=
EXTT6=
EXTT7=
EXTT8=
EXTT9=
EXTT10=
EXTT11=
EXTT12=
EXTT13=
EXTT14=
EXTT15=
EXTT16=
EXTT17=
EXTT18=
EXTT19=
EXTT20=
EXTT21=
EXTT22=
EXTT23=
PLAYORDER=
